# xmcd
#
# Track frame offsets:
# 150
# 21150
# 41478
# 58803
#
# Disc length: 990 seconds
#
# Revision: 1
# Processed by: cddbd v1.5.2PL0 Copyright (c) Steve Scherf et al.
# Submitted via: CedeCatalogueitor 2.6.0.6 http://personales.ya.com/cdcatalogueitor
#
DISCID=2e03dc04
DTITLE=Tulsa - Tulsa
DYEAR=1900
DGENRE=
TTITLE0=Seguramente Me Lo Merezco
TTITLE1=La Venganza De Tulsa
TTITLE2=La Goulue
TTITLE3=Cantártica
EXTD=
EXTT0=
EXTT1=
EXTT2=
EXTT3=
PLAYORDER=
